<svg width="20" height="20" viewBox="0 0 20 20" fill="none" xmlns="http://www.w3.org/2000/svg">
<path fill-rule="evenodd" clip-rule="evenodd" d="M12.9179 11.9369L9.58459 14.5841V15.8879C9.58459 16.0461 9.75384 16.1465 9.89267 16.0708L12.3751 14.7167C12.7098 14.5342 12.9179 14.1835 12.9179 13.8023V11.9369ZM8.33459 14.5413L5.45999 11.6666H4.1134C3.00643 11.6666 2.30306 10.4818 2.83313 9.50998L4.18716 7.02764C4.58873 6.29142 5.36037 5.83335 6.199 5.83335H9.08626C11.2605 3.51958 13.6883 1.94921 16.8273 1.70106C17.6693 1.6345 18.3668 2.33195 18.3003 3.17391C18.0521 6.31293 16.4817 8.74081 14.1679 10.915V13.8023C14.1679 14.6409 13.7098 15.4126 12.9737 15.8141L10.4913 17.1681C9.51951 17.6982 8.33459 16.9949 8.33459 15.8879V14.5413ZM8.06441 7.08335H6.199C5.81781 7.08335 5.46706 7.29157 5.28452 7.62621L3.9305 10.1086C3.85477 10.2474 3.95526 10.4166 4.1134 10.4166H5.41711L8.06441 7.08335Z" fill="#91AC86" fill-opacity="0.8"/>
<path d="M1.66667 15.9954C1.66667 14.7042 2.71341 13.6575 4.00464 13.6575C5.29586 13.6575 6.3426 14.7042 6.3426 15.9954C6.3426 17.2866 5.29586 18.3334 4.00464 18.3334H2.29167C1.9465 18.3334 1.66667 18.0536 1.66667 17.7084V15.9954Z" fill="#91AC86" fill-opacity="0.8"/>
</svg>
