<svg width="20" height="20" viewBox="0 0 20 20" fill="none" xmlns="http://www.w3.org/2000/svg">
<path d="M11.0311 1.81386C10.4616 1.24434 9.53816 1.24434 8.96866 1.81386L7.02218 3.76034C6.45267 4.32986 6.45267 5.25322 7.02218 5.82274L8.96866 7.76922C9.53816 8.33875 10.4616 8.33875 11.0311 7.76922L12.9776 5.82274C13.5471 5.25322 13.5471 4.32986 12.9776 3.76034L11.0311 1.81386Z" fill="#91AC86" fill-opacity="0.8"/>
<path d="M5.82274 7.02217C5.25322 6.45265 4.32986 6.45265 3.76034 7.02217L1.81386 8.96864C1.24434 9.53814 1.24434 10.4616 1.81386 11.0311L3.76034 12.9776C4.32986 13.5471 5.25322 13.5471 5.82274 12.9776L7.76922 11.0311C8.33875 10.4616 8.33875 9.53814 7.76922 8.96864L5.82274 7.02217Z" fill="#91AC86" fill-opacity="0.8"/>
<path d="M16.2394 7.02217C15.6699 6.45265 14.7465 6.45265 14.177 7.02217L12.2305 8.96864C11.661 9.53814 11.661 10.4616 12.2305 11.0311L14.177 12.9776C14.7465 13.5471 15.6699 13.5471 16.2394 12.9776L18.1859 11.0311C18.7554 10.4616 18.7554 9.53814 18.1859 8.96864L16.2394 7.02217Z" fill="#91AC86" fill-opacity="0.8"/>
<path d="M11.0311 12.2305C10.4616 11.661 9.53816 11.661 8.96866 12.2305L7.02218 14.177C6.45267 14.7465 6.45267 15.6699 7.02218 16.2394L8.96866 18.1859C9.53816 18.7554 10.4616 18.7554 11.0311 18.1859L12.9776 16.2394C13.5471 15.6699 13.5471 14.7465 12.9776 14.177L11.0311 12.2305Z" fill="#91AC86" fill-opacity="0.8"/>
</svg>
