<svg width="20" height="20" viewBox="0 0 20 20" fill="none" xmlns="http://www.w3.org/2000/svg">
<path d="M4.14139 14.9747C4.38546 14.7307 4.7811 14.7307 5.02518 14.9747C5.26921 15.2188 5.26924 15.6144 5.02518 15.8585L2.94185 17.9418C2.69778 18.1859 2.30214 18.1859 2.05806 17.9418C1.81398 17.6977 1.81398 17.3022 2.05806 17.0581L4.14139 14.9747Z" fill="#91AC86" fill-opacity="0.8"/>
<path d="M14.9747 14.9747C15.2188 14.7307 15.6144 14.7307 15.8585 14.9747L17.9418 17.0581C18.1859 17.3022 18.1859 17.6977 17.9418 17.9418C17.6977 18.1859 17.3022 18.1859 17.0581 17.9418L14.9747 15.8585C14.7307 15.6144 14.7307 15.2188 14.9747 14.9747Z" fill="#91AC86" fill-opacity="0.8"/>
<path d="M9.99992 2.49994C10.537 2.49996 11.023 2.81914 11.2361 3.31211L12.7181 6.73904C12.8233 6.98241 13.0175 7.17661 13.2608 7.28184L16.6878 8.76374C17.1808 8.97691 17.4999 9.46291 17.4999 9.99991C17.4999 10.537 17.1808 11.023 16.6878 11.2361L13.2608 12.7181C13.0175 12.8232 12.8233 13.0175 12.7181 13.2608L11.2361 16.6877C11.023 17.1807 10.537 17.4999 9.99992 17.4999C9.46292 17.4999 8.97692 17.1807 8.76375 16.6877L7.28185 13.2608C7.17663 13.0175 6.98242 12.8233 6.73905 12.7181L3.31213 11.2361C2.81915 11.023 2.49998 10.537 2.49995 9.99991C2.49995 9.46282 2.81914 8.97691 3.31213 8.76374L6.73905 7.28184C6.98243 7.17661 7.17662 6.98241 7.28185 6.73904L8.76375 3.31211C8.97692 2.81913 9.46284 2.49994 9.99992 2.49994Z" fill="#91AC86" fill-opacity="0.8"/>
<path d="M2.05806 2.05806C2.30213 1.81398 2.69776 1.81398 2.94185 2.05806L5.02518 4.14139C5.26921 4.38547 5.26924 4.78111 5.02518 5.02518C4.78111 5.26924 4.38547 5.26921 4.14139 5.02518L2.05806 2.94185C1.81398 2.69776 1.81398 2.30213 2.05806 2.05806Z" fill="#91AC86" fill-opacity="0.8"/>
<path d="M17.0581 2.05806C17.3022 1.81398 17.6977 1.81398 17.9418 2.05806C18.1859 2.30214 18.1859 2.69778 17.9418 2.94185L15.8585 5.02518C15.6144 5.26924 15.2188 5.26921 14.9747 5.02518C14.7307 4.7811 14.7307 4.38546 14.9747 4.14139L17.0581 2.05806Z" fill="#91AC86" fill-opacity="0.8"/>
</svg>
