<svg width="20" height="20" viewBox="0 0 20 20" fill="none" xmlns="http://www.w3.org/2000/svg">
<path fill-rule="evenodd" clip-rule="evenodd" d="M8.22945 3.76012C7.91946 3.72228 7.58713 3.78634 7.23357 4.02637C6.68208 4.40078 6.41068 4.84276 6.30479 5.31276C6.19498 5.80015 6.25227 6.37061 6.45916 6.99384C6.81181 8.05618 7.5598 9.15225 8.34658 10.0008C9.21116 9.169 10.0823 8.62334 10.9466 8.47484C10.8987 7.77317 10.8099 7.1461 10.6962 6.65236C10.4818 5.72092 9.91808 4.77726 9.232 4.22665C8.89366 3.95514 8.55158 3.79943 8.22945 3.76012ZM12.2042 8.55484C12.156 7.73616 12.055 6.98248 11.9144 6.37193C11.6445 5.19958 10.9447 3.99835 10.0143 3.25176C9.54441 2.87466 8.99008 2.59368 8.38091 2.51933C7.75955 2.44348 7.12568 2.58877 6.53146 2.99218C5.73105 3.53558 5.26456 4.2426 5.08535 5.03803C4.91006 5.81605 5.02045 6.62743 5.27282 7.38766C5.7055 8.69108 6.59484 9.96425 7.49113 10.9161C7.39453 11.0295 7.29745 11.1468 7.1999 11.2679C6.84663 11.7066 6.51323 12.3176 6.2611 12.9637C6.21399 13.0844 6.16911 13.2079 6.12707 13.3333H1.45833C1.11315 13.3333 0.833328 13.6132 0.833328 13.9583C0.833328 14.3035 1.11315 14.5833 1.45833 14.5833H5.82854C5.80905 14.7284 5.79559 14.8725 5.78903 15.0145C5.75861 15.6726 5.8724 16.4079 6.3713 16.925C6.89936 17.4723 7.68746 17.6067 8.61399 17.4204C10.0507 17.1317 10.9322 15.9408 11.4566 14.5833H18.5417C18.8868 14.5833 19.1667 14.3035 19.1667 13.9583C19.1667 13.6132 18.8868 13.3333 18.5417 13.3333H11.8393C12.0975 12.2508 12.2152 11.0718 12.2335 9.95717C12.6751 10.2678 13.1242 10.87 13.5408 11.8953C13.6384 12.1352 13.8004 12.4428 14.1055 12.5995C14.5029 12.8037 14.8653 12.6373 15.0645 12.4809C15.2494 12.3358 15.3957 12.1318 15.5059 11.9583C15.6232 11.7735 15.7367 11.5618 15.8421 11.3577C15.8931 11.2588 15.9422 11.1622 15.9896 11.0688C16.0787 10.8931 16.1622 10.7285 16.2432 10.5802C16.2423 10.6345 16.241 10.6922 16.2396 10.7537C16.239 10.7793 16.2384 10.8056 16.2377 10.8326L16.2377 10.8365C16.2322 11.0823 16.2242 11.4475 16.3222 11.7536C16.3763 11.9229 16.4767 12.1226 16.6694 12.2774C16.8692 12.4379 17.1055 12.5 17.3365 12.5H18.5417C18.8868 12.5 19.1667 12.2202 19.1667 11.875C19.1667 11.5298 18.8868 11.25 18.5417 11.25H17.4923C17.4852 11.1639 17.4835 11.0394 17.4875 10.8603C17.4881 10.8334 17.4888 10.8053 17.4896 10.7759C17.4956 10.5417 17.5035 10.2333 17.4615 9.95942C17.4142 9.6505 17.2774 9.20425 16.8267 8.96367C16.4511 8.76317 16.0916 8.8845 15.8657 9.04425C15.6655 9.18584 15.5095 9.391 15.3939 9.56517C15.2069 9.84684 15.0182 10.2195 14.8525 10.5465C14.8105 10.6294 14.7699 10.7095 14.7313 10.7843C14.6715 10.9002 14.615 11.0066 14.5612 11.1021C13.9892 9.8255 13.2217 8.87834 12.2042 8.55484ZM16.1944 10.0283C16.1944 10.0283 16.1956 10.0295 16.1973 10.0332C16.1952 10.0303 16.1944 10.0283 16.1944 10.0283ZM10.9857 9.74642C10.5118 9.87517 9.93683 10.2141 9.25775 10.8588C9.39175 10.9663 9.51941 11.0598 9.63825 11.1383C9.92633 11.3284 10.0057 11.7161 9.81558 12.0042C9.6255 12.2923 9.23775 12.3717 8.94966 12.1816C8.77258 12.0647 8.58883 11.9277 8.40225 11.7743C8.3267 11.8638 8.25041 11.9563 8.17344 12.0519C7.93377 12.3495 7.6729 12.8066 7.4593 13.3333H10.5497C10.8479 12.231 10.979 10.9567 10.9857 9.74642ZM10.0975 14.5833H7.09302C7.06382 14.7523 7.0449 14.9163 7.0377 15.0722C7.01354 15.5948 7.1244 15.9053 7.27084 16.0571C7.38812 16.1786 7.66603 16.336 8.36766 16.1949C9.07775 16.0523 9.65883 15.498 10.0975 14.5833ZM1.01639 8.51642C1.26046 8.27233 1.65619 8.27233 1.90027 8.51642L2.91666 9.53284L3.93305 8.51642C4.17713 8.27233 4.57286 8.27233 4.81694 8.51642C5.06101 8.7605 5.06101 9.15617 4.81694 9.40025L3.80054 10.4167L4.81694 11.4331C5.06101 11.6772 5.06101 12.0728 4.81694 12.3169C4.57286 12.561 4.17713 12.561 3.93305 12.3169L2.91666 11.3006L1.90027 12.3169C1.65619 12.561 1.26046 12.561 1.01639 12.3169C0.772309 12.0728 0.772309 11.6772 1.01639 11.4331L2.03278 10.4167L1.01639 9.40025C0.772309 9.15617 0.772309 8.7605 1.01639 8.51642Z" fill="#91AC86" fill-opacity="0.8"/>
</svg>
