<svg width="20" height="20" viewBox="0 0 20 20" fill="none" xmlns="http://www.w3.org/2000/svg">
<path d="M11.5951 0.84241C11.9353 0.784153 12.2583 1.01274 12.3166 1.35296L12.3167 1.3539L12.317 1.35517L12.3176 1.35868C12.327 1.41688 12.3351 1.47534 12.3422 1.53386C12.3556 1.64119 12.3712 1.79189 12.3817 1.97039C12.4023 2.32174 12.4042 2.80596 12.3151 3.28647C12.2128 3.83761 11.9543 4.34158 11.7431 4.68756C11.6169 4.89409 11.4793 5.0953 11.3257 5.2825L11.3228 5.28589L11.3212 5.28784C11.0994 5.55236 10.7051 5.58723 10.4405 5.36546C10.1763 5.14394 10.1414 4.75035 10.3624 4.48584L10.363 4.48516C10.4784 4.3439 10.5813 4.19152 10.6763 4.036C10.8531 3.74649 11.0239 3.39345 11.086 3.05848C11.1495 2.71627 11.1514 2.34347 11.1338 2.04348C11.1245 1.88436 11.1094 1.72533 11.0852 1.56775L11.0845 1.56393C11.0263 1.22377 11.2549 0.900652 11.5951 0.84241Z" fill="#91AC86" fill-opacity="0.8"/>
<path d="M15.9903 2.156C16.3151 2.2731 16.4833 2.63125 16.3662 2.95596L15.9799 4.02724C15.8628 4.35194 15.5047 4.52025 15.18 4.40315C14.8552 4.28606 14.687 3.92791 14.8041 3.60319L15.1904 2.53193C15.3075 2.20722 15.6657 2.03891 15.9903 2.156Z" fill="#91AC86" fill-opacity="0.8"/>
<path d="M18.2691 5.89289C18.4232 6.20173 18.2979 6.57706 17.989 6.73122L17.1306 7.15973C16.8218 7.31389 16.4464 7.18849 16.2922 6.87965C16.1381 6.5708 16.2635 6.19547 16.5723 6.04131L17.4308 5.6128C17.7396 5.45865 18.115 5.58405 18.2691 5.89289Z" fill="#91AC86" fill-opacity="0.8"/>
<path d="M14.2891 5.73046C14.5329 5.97475 14.5326 6.37048 14.2883 6.61434L13.4298 7.47136C13.1856 7.71523 12.7898 7.71489 12.5459 7.47061C12.3021 7.22633 12.3024 6.83059 12.5467 6.58673L13.4052 5.72971C13.6495 5.48584 14.0452 5.48618 14.2891 5.73046Z" fill="#91AC86" fill-opacity="0.8"/>
<path d="M5.03591 7.02957C5.63961 5.49103 7.62311 5.07645 8.79267 6.24406L13.7673 11.2102C14.9387 12.3795 14.5238 14.3663 12.9827 14.9696L4.80306 18.1714C2.93935 18.901 1.09965 17.0612 1.83089 15.1976L5.03591 7.02957Z" fill="#91AC86" fill-opacity="0.8"/>
<path d="M14.51 9.14525C14.5246 8.80034 14.8159 8.53259 15.1608 8.54717L15.1627 8.54725L15.1654 8.54733C15.318 8.55483 15.4702 8.57109 15.6216 8.59125C15.8852 8.6265 16.2462 8.69067 16.6124 8.80759C16.9548 8.917 17.3164 9.09475 17.5762 9.23334C17.7325 9.31675 17.8873 9.40359 18.0381 9.49675L18.0389 9.49717C18.3322 9.67917 18.423 10.0648 18.241 10.3581C18.0591 10.6513 17.6738 10.7417 17.3805 10.5598C17.2522 10.4809 17.1205 10.4071 16.9877 10.3362C16.7474 10.2079 16.4652 10.0728 16.232 9.99834C15.9596 9.91134 15.6767 9.85975 15.4561 9.83025C15.3412 9.81492 15.2258 9.80267 15.1101 9.79617L15.108 9.796C14.7632 9.78142 14.4955 9.49009 14.51 9.14525Z" fill="#91AC86" fill-opacity="0.8"/>
</svg>
